
        <svg version="1.1" id="svg-editor-canvas" x="0px" y="0px" class="canvas" width="737" height="167" xmlns="http://www.w3.org/2000/svg" xmlns:xlink="http://www.w3.org/1999/xlink" xmlns:a="http://ns.adobe.com/AdobeSVGViewerExtensions/3.0/" xml:space="preserve">
				<g id="svg-engine">
				
				 <g ng-repeat="shape in logo.shapes | orderBy:'zindex'" class="ng-scope"> 
					
					
					
					
	
					
					<g type="container-logo" ng-click="clickOnItem($event,shape)" ng-class="{'active': shape.selected, 'dragging': dragging}" ng-right-click="rightClick($event)" class="logo-item ng-scope noclick" ng-if="shape.type == 'logo' || shape.type == 'shape'" ng-attr-transform="translate({{(shape.symetrieX == 1 ? shape.x : shape.x + shape.width)}} {{(shape.symetrieY == 1 ? shape.y : shape.y + shape.height)}}) scale({{shape.width / shape.originalWidth * shape.symetrieX}} {{shape.height / shape.originalHeight * shape.symetrieY}}) rotate({{shape.rotate * shape.symetrieX * shape.symetrieY}} {{shape.originalWidth / 2}} {{shape.originalHeight / 2}})" id="shape-4" ng-mousedown="mouseDownItem($event,shape)" ng-mouseover="mouseUpItem($event,shape)" ng-mouseout="mouseOutItem($event,shape)" transform="translate(0 0.000335693359375) scale(1.593661499740222 1.5936614997402387) rotate(0 73.04899597168 52.154613494875)">
	
						<g type="logo" class="svg-item ng-isolate-scope ng-pristine ng-valid" ng-model="shape" ng-shape="" ng-click="skav($event, shape)"><linearGradient id="SVGID_4_0" x1="0%" y1="0%" x2="100%" y2="0%" gradientTransform="rotate(90)" class="ng-scope"><stop offset="0%" stop-color="#0eaa96" stop-opacity="1"></stop><stop offset="100%" stop-color="#cfdc27" stop-opacity="1"></stop></linearGradient><path d="M137.803,10.84l-29.275,2.716c0.048,0.292,0.076,0.589,0.076,0.891v6.879l18.292-1.337
	c3.52-0.257,6.417,1.861,6.417,4.735v50.79c0,2.874-2.897,4.992-6.417,4.735l-76.299-5.573L37.57,75.884
	c0.393,2.431,2.345,4.433,4.731,4.653l64.054,5.942l0.186,17.83l25.525-15.444l5.737,0.532c4.541,0.421,8.295-2.28,8.295-6.042
	V16.882C146.098,13.121,142.344,10.419,137.803,10.84z" ng-click="mouseDown($event,0)" id="PATH_4_0" fill="url(#SVGID_4_0)" class="ng-scope"></path><linearGradient id="SVGID_4_1" x1="0%" y1="0%" x2="100%" y2="0%" gradientTransform="rotate(90)" class="ng-scope"><stop offset="0%" stop-color="#4166a1" stop-opacity="1"></stop><stop offset="100%" stop-color="#22b7ce" stop-opacity="1"></stop></linearGradient><path d="M37.494,68.116l-18.292,1.336c-3.52,0.258-6.417-1.861-6.417-4.735V13.927
	c0-2.874,2.897-4.992,6.417-4.735L95.5,14.765l13.027-1.209c-0.392-2.43-2.345-4.432-4.73-4.653L8.294,0.043
	C3.753-0.378,0,2.324,0,6.085v66.474c0,3.762,3.753,6.463,8.294,6.042l3.058-0.284L37.57,96.419l-4.352-20.131l4.352-0.404
	c-0.047-0.291-0.076-0.588-0.076-0.89V68.116z" ng-click="mouseDown($event,1)" id="PATH_4_1" fill="url(#SVGID_4_1)" class="ng-scope"></path><linearGradient id="SVGID_4_2" x1="0%" y1="0%" x2="100%" y2="0%" gradientTransform="rotate(90)" class="ng-scope"><stop offset="0%" stop-color="#eb3362" stop-opacity="1"></stop><stop offset="100%" stop-color="#fbc63f" stop-opacity="1"></stop></linearGradient><path d="M108.529,63.628V13.552c0,0-60.13,5.493-65.796,6.16s-5.164,5.53-5.164,5.53v50.64l64.913-6.087
	C109.315,69.045,108.529,63.628,108.529,63.628z M101.049,59.363c0,4.483-4.567,4.433-4.567,4.433l-51.416,3.767V29.629
	c0.417-3.666,4.093-3.957,4.093-3.957l51.891-3.8C101.049,21.873,101.049,54.879,101.049,59.363z" ng-click="mouseDown($event,2)" id="PATH_4_2" fill="url(#SVGID_4_2)" class="ng-scope"></path></g>
					</g>
				 </g><g ng-repeat="shape in logo.shapes | orderBy:'zindex'" class="ng-scope"> 
					
					<g ng-dblclick="test($event)" on-change="changeText(shape)" ng-model="shape" ng-click="clickOnItem($event,shape)" ng-right-click="rightClick($event)" ng-class="{'active': shape.selected}" class="contenteditable logo-item ng-scope ng-pristine ng-valid noclick" ng-attr-transform="translate({{shape.x}} {{shape.y + (shape.bbox.y * -1 * shape.ratio)}})  scale({{shape.ratio}} {{shape.ratio}})" ng-if="shape.type == 'text'" id="shape-0" ng-mousedown="mouseDownItem($event,shape)" ng-mouseover="mouseUpItem($event,shape)" ng-mouseout="mouseOutItem($event,shape)" transform="translate(376.265625 80.26596069335938)  scale(1 1)" contenteditable="false">
						<text class="real-text ng-binding" id="text-0" dominant-baseline="auto" alignment-baseline="auto" font-family="Horizon Rounded Bold" font-size="62px" fill="#f69220" ng-attr-dx="{{shape.dx}}" xml:space="preserve" dx="0 0 0 0 0 0 0 0">WestApps</text>
					</g>
					
					
	
					
					
				 </g><g ng-repeat="shape in logo.shapes | orderBy:'zindex'" class="ng-scope"> 
					
					<g ng-dblclick="test($event)" on-change="changeText(shape)" ng-model="shape" ng-click="clickOnItem($event,shape)" ng-right-click="rightClick($event)" ng-class="{'active': shape.selected}" class="contenteditable logo-item ng-scope ng-pristine ng-valid" ng-attr-transform="translate({{shape.x}} {{shape.y + (shape.bbox.y * -1 * shape.ratio)}})  scale({{shape.ratio}} {{shape.ratio}})" ng-if="shape.type == 'text'" id="shape-1" ng-mousedown="mouseDownItem($event,shape)" ng-mouseover="mouseUpItem($event,shape)" ng-mouseout="mouseOutItem($event,shape)" transform="translate(322.65625 125.57846069335938)  scale(1 1)" contenteditable="false">
						<text class="real-text ng-binding" id="text-1" dominant-baseline="auto" alignment-baseline="auto" font-family="Horizon Rounded Bold" font-size="34px" fill="#5f6768" ng-attr-dx="{{shape.dx}}" xml:space="preserve" dx="0 0 0 0 0 0 0 0 0 0 0 0 0 0 0 0 0 0 0 0 0 0">Automate Your Business</text>
					</g>
					
					
	
					
					
				 </g><g ng-repeat="shape in logo.shapes | orderBy:'zindex'" class="ng-scope"> 
					
					
					
					
	
					
					<g type="container-shape" ng-click="clickOnItem($event,shape)" ng-class="{'active': shape.selected, 'dragging': dragging}" ng-right-click="rightClick($event)" class="logo-item ng-scope" ng-if="shape.type == 'logo' || shape.type == 'shape'" ng-attr-transform="translate({{(shape.symetrieX == 1 ? shape.x : shape.x + shape.width)}} {{(shape.symetrieY == 1 ? shape.y : shape.y + shape.height)}}) scale({{shape.width / shape.originalWidth * shape.symetrieX}} {{shape.height / shape.originalHeight * shape.symetrieY}}) rotate({{shape.rotate * shape.symetrieX * shape.symetrieY}} {{shape.originalWidth / 2}} {{shape.originalHeight / 2}})" id="shape-2" ng-mousedown="mouseDownItem($event,shape)" ng-mouseover="mouseUpItem($event,shape)" ng-mouseout="mouseOutItem($event,shape)" transform="translate(714.667236328125 32.01031494140625) scale(2.0943508739480325 2.094350873947923) rotate(179 5.012499809265 21.090000152588)">
	
						<g type="shape" class="svg-item ng-isolate-scope ng-pristine ng-valid" ng-model="shape" ng-shape="" ng-click="skav($event, shape)"><path d="M2.077,33.689c0,0,0-3.342,0-7.677S0,20.955,0,20.955c5.419,0,5.69,6.684,5.69,6.684s0,3.07,0,7.677
  s4.335,6.864,4.335,6.864S2.077,40.915,2.077,33.689z" ng-click="mouseDown($event,0)" id="PATH_2_0" fill="#f69220" class="ng-scope"></path><path d="M2.077,8.49c0,0,0,3.342,0,7.678C2.077,20.502,0,21.225,0,21.225c5.419,0,5.69-6.684,5.69-6.684
 s0-3.07,0-7.677S10.025,0,10.025,0S2.077,1.265,2.077,8.49z" ng-click="mouseDown($event,1)" id="PATH_2_1" fill="#f69220" class="ng-scope"></path></g>
					</g>
				 </g><g ng-repeat="shape in logo.shapes | orderBy:'zindex'" class="ng-scope"> 
					
					
					
					
	
					
					<g type="container-shape" ng-click="clickOnItem($event,shape)" ng-class="{'active': shape.selected, 'dragging': dragging}" ng-right-click="rightClick($event)" class="logo-item ng-scope" ng-if="shape.type == 'logo' || shape.type == 'shape'" ng-attr-transform="translate({{(shape.symetrieX == 1 ? shape.x : shape.x + shape.width)}} {{(shape.symetrieY == 1 ? shape.y : shape.y + shape.height)}}) scale({{shape.width / shape.originalWidth * shape.symetrieX}} {{shape.height / shape.originalHeight * shape.symetrieY}}) rotate({{shape.rotate * shape.symetrieX * shape.symetrieY}} {{shape.originalWidth / 2}} {{shape.originalHeight / 2}})" id="shape-3" ng-mousedown="mouseDownItem($event,shape)" ng-mouseover="mouseUpItem($event,shape)" ng-mouseout="mouseOutItem($event,shape)" transform="translate(306.128967285156 32.922210693359375) scale(-2.1123035502180985 2.1123011414970456) rotate(-180 5.012499809265 21.090000152588)">
	
						<g type="shape" class="svg-item ng-isolate-scope ng-pristine ng-valid" ng-model="shape" ng-shape="" ng-click="skav($event, shape)"><path d="M2.077,33.689c0,0,0-3.342,0-7.677S0,20.955,0,20.955c5.419,0,5.69,6.684,5.69,6.684s0,3.07,0,7.677
  s4.335,6.864,4.335,6.864S2.077,40.915,2.077,33.689z" ng-click="mouseDown($event,0)" id="PATH_3_0" fill="#f69220" class="ng-scope"></path><path d="M2.077,8.49c0,0,0,3.342,0,7.678C2.077,20.502,0,21.225,0,21.225c5.419,0,5.69-6.684,5.69-6.684
 s0-3.07,0-7.677S10.025,0,10.025,0S2.077,1.265,2.077,8.49z" ng-click="mouseDown($event,1)" id="PATH_3_1" fill="#f69220" class="ng-scope"></path></g>
					</g>
				 </g>
				 </g>
             
        </svg>
        